<svg width="1851" height="1851" viewBox="0 0 1851 1851" fill="none" xmlns="http://www.w3.org/2000/svg">
<path d="M1181.8 253.932C904.52 126.202 558.031 307.153 419.445 413.595C375.446 413.595 273.615 475.958 218.286 725.412C149.125 1037.23 190.622 1328.49 419.445 1550.2C648.269 1771.91 1140.3 1716.59 1445 1550.2C1749.71 1383.82 1659.99 787.854 1659.99 670.083C1659.99 552.312 1528.39 413.595 1181.8 253.932Z" fill="#8289F1"/>
<path d="M1426.57 366.082C1514.89 418.32 1572.7 517.051 1616.74 620.444C1660.78 723.838 1690.25 872.04 1690.78 986.665C1691.31 1101.29 1671.87 1210.11 1620.02 1308.21C1568.18 1406.32 1473.96 1511.09 1379.74 1575.31C1285.51 1639.53 1166.83 1674.34 1054.85 1693.56C942.862 1712.78 818.57 1719.91 707.857 1690.51C597.145 1661.11 472.315 1598.96 390.539 1517.16C308.763 1435.35 254.391 1312.96 216.981 1199.63C179.571 1086.3 154.191 948.472 165.865 837.182C177.54 725.893 221.795 622.191 287.067 531.918C352.339 441.645 456.831 352.851 557.529 295.364C658.228 237.878 774.117 191.623 891.296 187.023C1008.47 182.422 1138.48 190.682 1260.58 267.779C1382.69 344.875 1555.95 522.449 1624.03 649.594C1692.11 776.74 1679.51 1022.04 1669.08 1030.65M985.884 205.534C1094.71 199.211 1189.54 241.158 1282.65 292.558C1375.76 343.959 1473.58 426.572 1544.5 513.913C1615.42 601.253 1691.74 699.785 1708.21 816.64C1724.68 933.494 1681.04 1101.68 1643.35 1215.01C1605.65 1328.34 1563.64 1423.4 1482.02 1496.65C1400.39 1569.91 1262.8 1617.67 1153.6 1654.55C1044.4 1691.43 936.46 1725.41 826.806 1717.97C717.153 1710.53 585.423 1672.12 495.688 1609.91C405.952 1547.7 341.336 1446.7 288.379 1344.64C235.421 1242.58 187.159 1115.38 177.856 997.509C168.553 879.643 184.969 745.281 232.528 637.446C280.087 529.61 373.364 418.139 463.328 350.527C553.293 282.915 685.655 256.468 772.181 231.641C858.707 206.815 954.283 207.281 982.509 201.764C1010.73 196.247 939.4 190.192 941.503 198.515" stroke="black" stroke-width="10" stroke-miterlimit="12"/>
<path d="M894.561 236.892C1005.06 236.892 1227.06 219.892 1280.56 694.392C1315.06 667.392 1347.21 679.358 1347.56 694.392C1353.21 711.731 1360.99 745.314 1361.02 776.892C1361.05 802.023 1356.18 825.884 1341.43 839.279L1336.06 856.392L1309.9 850.391C1298.04 850.431 1283.66 847.378 1266.3 840.392C1234.68 965.193 1151.47 1045.82 1080.56 1091.23L1074.17 1253.5C1076.63 1304.75 1078.32 1349.98 1071.22 1357.1C1082.27 1351.98 1134.52 1331.66 1126.06 1368.39C1103.38 1466.89 1031.36 1524.26 881.062 1582.39C713.711 1582.39 693.884 1508.51 731.562 1440.39C761.09 1387.01 834.562 1395.89 850.062 1303.89L833.419 1135.35C828.274 1108.38 822.228 1086.56 815.71 1076.34L811.061 1071.16C749.187 1030.34 691.893 973.745 653.062 885.892C640.997 908.148 625.438 912.964 609.935 907.024L603.062 910.392L598.768 900.938C569.354 880.247 543.325 825.636 546.062 784.892C571.562 688.892 614.711 777.68 612.061 750.892C567.062 295.892 795.561 235.228 894.561 236.892Z" fill="#8C5A2B"/>
<path d="M1229.17 776.631C1235.57 655.031 1183.34 443.131 1160.67 340.131C1160.67 312.465 1184.67 315.631 1229.17 410.631C1277.73 514.296 1282.89 621.597 1277.47 715.631C1394.17 604.131 1378.67 894.131 1272.17 855.131C1264.97 947.131 1127 1061.63 1063.67 1097.13V1352.13H1093.67H1126.17L1109.67 1425.13C1083.5 1458.63 1034.97 1512.63 1050.17 1460.63C1069.17 1395.63 1031.17 1409.13 1014.67 1384.63C1001.47 1365.03 1020.17 1197.46 1031.17 1116.13C1016.67 1124.3 982.772 1139.53 963.172 1135.13C938.672 1129.63 990.172 1121.63 1063.67 1050.63C1137.17 979.631 1221.17 928.631 1229.17 776.631Z" fill="black" fill-opacity="0.1"/>
<path d="M834.774 1295.41C719.086 1353.6 600.649 1412.71 472.266 1429.69" stroke="black" stroke-width="7.78769" stroke-miterlimit="10"/>
<path d="M1081.06 1277.89C1177.76 1294.14 1271.99 1322.71 1361.43 1362.89" stroke="black" stroke-width="7.78769" stroke-miterlimit="10"/>
<path d="M838.533 1300.45C811.389 1317.31 779.332 1335.33 747.668 1348.89C715.839 1362.86 684.394 1372.36 654.548 1381.56C624.703 1390.77 596.143 1399.5 567.5 1410.2C538.708 1420.32 509.592 1432.32 476.036 1434.73" stroke="black" stroke-width="7.78769" stroke-miterlimit="10"/>
<path d="M1084.64 1283.1C1106.46 1286.95 1141.97 1292.1 1168.38 1298.1C1196.02 1304.1 1214.55 1310.9 1230.97 1318.1C1247.55 1325.31 1261.97 1332.88 1284.97 1340.97C1306.97 1349.11 1337.57 1357.75 1364.97 1368.09" stroke="black" stroke-width="7.78769" stroke-miterlimit="10"/>
<path d="M614.726 764.891C617.166 759.031 614.416 752.021 609.726 747.721C605.036 743.421 598.846 741.271 592.726 739.411C583.346 736.551 572.726 734.231 564.096 738.801C556.496 742.801 552.296 751.201 549.706 759.411C542.296 782.931 544.316 808.701 551.796 832.201C559.276 855.701 571.936 877.201 585.796 897.631C587.536 900.221 589.386 902.861 592.026 904.511C595.126 906.441 598.946 906.781 602.606 906.761C611.44 906.671 620.169 904.837 628.293 901.366C636.417 897.894 643.775 892.853 649.946 886.531" stroke="black" stroke-width="7.78769" stroke-miterlimit="10"/>
<path d="M608.156 727.991C607.546 739.201 610.526 750.281 613.716 761.051C625.146 799.751 665.036 902.491 684.896 937.451C702.896 969.071 742.476 1024.27 763.176 1041.8L788.616 1063.4C798.386 1071.67 808.206 1080 819.066 1086.83C829.006 1093.08 839.976 1095.83 850.956 1099.89C875.896 1109.19 901.056 1118.05 926.866 1124.66C942.606 1128.66 958.796 1131.88 975.016 1130.86C995.856 1129.56 1015.59 1121.4 1034.86 1113.36C1061.1 1102.36 1083.78 1092.7 1105.86 1074.75C1128.44 1056.42 1150.21 1037.15 1171.17 1016.93C1192.11 996.731 1212.33 975.451 1227.73 950.781C1236.49 936.781 1243.6 921.781 1250.73 906.851C1257.46 892.661 1264.23 878.381 1268.54 863.271C1273.29 846.581 1274.96 829.171 1276.22 811.861C1281.15 744.019 1280.19 675.877 1273.35 608.201" stroke="black" stroke-width="7.78769" stroke-miterlimit="10"/>
<path d="M1075.34 1097.87C1070.57 1187.25 1069.97 1276.72 1073.54 1366.29" stroke="black" stroke-width="7.78769" stroke-miterlimit="10"/>
<path d="M826.062 1089.39C835.767 1140.8 843.342 1208.63 844.666 1260.93C845.666 1300.61 843.666 1342.39 823.106 1376.34" stroke="black" stroke-width="7.78769" stroke-miterlimit="10"/>
<path d="M818.936 1350.73C822.456 1353.73 818.596 1359.24 814.936 1362.05L777.556 1390.65C750.556 1411.3 721.876 1434.49 713.756 1467.48C706.316 1497.69 718.946 1530.73 741.616 1552.04C764.286 1573.35 795.616 1583.8 826.616 1585.62C857.616 1587.44 888.666 1581.23 918.616 1572.75" stroke="black" stroke-width="7.78769" stroke-miterlimit="10"/>
<path d="M1073.36 1344.82L1111.42 1342.42C1115.25 1342.18 1119.42 1342.01 1122.58 1344.12C1127.36 1347.28 1127.98 1353.99 1127.58 1359.71C1125.58 1389.3 1110.2 1416.31 1092.7 1440.25C1020 1539.67 902.106 1604.62 779.226 1612.96" stroke="black" stroke-width="7.78769" stroke-miterlimit="10"/>
<path d="M619.746 776.992C622.016 770.582 619.426 762.132 614.616 756.572C609.806 751.012 603.396 747.972 597.036 745.512C587.096 741.512 576.036 739.382 568.236 744.182C561.366 748.322 557.426 756.322 554.476 764.422C545.156 787.902 548.196 815.072 556.956 834.132C565.636 853.412 573.396 872.662 588.306 899.852C590.226 903.192 592.376 906.722 595.306 908.952C598.696 911.562 602.626 911.952 606.306 911.952C624.186 911.102 638.306 904.302 653.646 891.722" stroke="black" stroke-width="7.78769" stroke-miterlimit="10"/>
<path d="M1286.24 716.266C1282.66 711.027 1283.92 703.603 1287.64 698.438C1291.35 693.272 1296.97 689.906 1302.59 686.838C1311.19 682.126 1321.11 677.69 1330.49 680.405C1338.75 682.772 1344.57 690.14 1348.78 697.65C1360.83 719.166 1364.1 744.807 1361.57 769.338C1359.03 793.869 1351.02 817.498 1341.62 840.324C1340.44 843.214 1339.17 846.176 1336.92 848.329C1334.28 850.851 1330.61 851.962 1327.02 852.689C1318.35 854.401 1309.43 854.385 1300.77 852.642C1292.11 850.899 1283.88 847.463 1276.55 842.532" stroke="black" stroke-width="7.78769" stroke-miterlimit="10"/>
<path d="M1283.79 729.136C1280.26 723.324 1281.08 714.523 1284.65 708.1C1288.23 701.676 1293.88 697.393 1299.61 693.689C1308.53 687.747 1318.92 683.407 1327.53 686.517C1335.1 689.17 1340.59 696.199 1345.13 703.528C1359.04 724.615 1361.6 751.835 1356.91 772.28C1352.34 792.924 1348.67 813.352 1339.61 843.01C1338.41 846.671 1337.03 850.565 1334.61 853.346C1331.83 856.592 1328.06 857.775 1324.46 858.525C1306.78 861.337 1291.57 857.557 1273.99 848.367" stroke="black" stroke-width="7.78769" stroke-miterlimit="10"/>
<path d="M611.061 729.89C572.062 278.892 794.062 245.392 904.562 228.892C994.566 215.452 1248.06 234.392 1273.06 608.89" stroke="black" stroke-width="7.78769" stroke-miterlimit="10"/>
<path d="M619.562 751.892C575.062 271.892 803.603 254.283 914.103 237.783C1004.11 224.344 1252.06 243.393 1277.06 617.892" stroke="black" stroke-width="7.78769" stroke-miterlimit="10"/>
<path d="M611.766 733.192C610.926 744.472 615.016 755.272 619.406 765.602C636.006 803.602 672.276 878.922 693.986 928.332C708.776 957.102 745.986 1006.5 764.096 1026.48C771.486 1034.15 778.996 1042.12 786.786 1050.37C795.786 1059.87 805.166 1069.86 815.936 1078.3C825.816 1086.04 836.576 1089.54 847.686 1094.83C872.956 1106.83 899.956 1118.83 928.016 1127.71C945.086 1133.12 962.756 1137.3 978.516 1135.97C998.796 1134.23 1014.6 1123.97 1030.46 1115.11C1052.16 1102.98 1078.57 1095.4 1096.56 1078.3C1115.04 1060.92 1137.58 1040.43 1159.56 1022.39C1181.54 1004.35 1195.59 986.202 1215.12 961.782C1226.2 947.932 1235.62 932.782 1245.06 917.262C1254.06 902.482 1263.06 887.081 1268.85 871.091C1275.21 853.421 1277.42 835.552 1279.06 817.912C1285.33 748.222 1283.45 681.912 1276.93 613.352" stroke="black" stroke-width="7.78769" stroke-miterlimit="10"/>
<path d="M1078.92 1103.08C1077.67 1136.14 1076.99 1158.25 1076.3 1172.64C1075.97 1180.64 1075.68 1188.64 1075.44 1199.52C1075.2 1210.1 1075.02 1223.59 1074.92 1235.52C1074.82 1247.45 1074.8 1260.34 1074.86 1270.46C1074.92 1280.93 1075.06 1288.46 1075.24 1297.06C1075.42 1305.66 1075.66 1315.22 1075.94 1328.67C1076.23 1341.67 1076.57 1358.54 1077.12 1371.52" stroke="black" stroke-width="7.78769" stroke-miterlimit="10"/>
<path d="M831.676 1110.31C837.736 1140.07 840.676 1175.73 843.046 1200.31C845.326 1226.47 847.126 1241.53 848.176 1266.83C849.296 1283.9 847.926 1310.16 844.856 1326.31C841.616 1344.54 836.686 1352.66 826.686 1381.57" stroke="black" stroke-width="7.78769" stroke-miterlimit="10"/>
<path d="M822.516 1355.94C826.876 1360.01 824.276 1367.14 821.306 1370.43C811.95 1381.11 801.305 1390.6 789.616 1398.66C766.186 1414.33 729.696 1434.29 718.036 1471.93C708.646 1505.93 725.366 1529.93 745.206 1550.58C765.456 1571.58 798.056 1589.08 830.206 1590.74C862.446 1592.56 888.896 1585.98 922.296 1577.96" stroke="black" stroke-width="7.78769" stroke-miterlimit="10"/>
<path d="M1077.11 1350.75C1089.67 1349.62 1102.32 1348.55 1115 1347.64C1118.82 1347.36 1123 1347.24 1126.16 1349.4C1130.94 1352.62 1131.56 1359.16 1131.16 1364.93C1129.43 1394.26 1112.56 1427.04 1091.32 1453.38C1069.72 1482.3 1043.88 1500.89 1019.43 1516.62C994.656 1532.18 971.266 1544.88 947.206 1558.2C901.056 1582.2 845.626 1615.72 782.806 1618.2" stroke="black" stroke-width="7.78769" stroke-miterlimit="10"/>
<path d="M592 414C560.4 558 578.834 700 592 753L626 774.5V623.5C626 586.5 653.5 475.5 665 441.5C676.5 407.5 733.5 341 759.5 295C780.3 258.2 831.5 258.667 854.5 263.5C912.5 264.833 1032.6 266.7 1049 263.5C1069.5 259.5 1108.5 263.5 1119.5 276C1130.5 288.5 1187.5 421 1227 504C1266.5 587 1261 756 1273.5 729C1283.5 707.4 1301.67 698.333 1309.5 696.5C1310.67 684.667 1312.3 644.9 1309.5 580.5C1306 500 1277.5 320 1227 224.5C1176.5 129 1077 90 916 90C755 90 687.5 170.5 665 189C642.5 207.5 631.5 234 592 414Z" fill="url(#paint0_linear_325_4)"/>
<path d="M889.89 263.07C939.55 261.82 989.26 258.79 1038.89 261.13C1056.02 261.94 1079.4 260.32 1095.81 265.56C1114.34 271.48 1130.81 295.27 1141.17 310.56C1154.1 329.74 1164 350.78 1173.41 371.92" stroke="black" stroke-width="7.7" stroke-miterlimit="10"/>
<path d="M1159.64 325.91C1165.99 366.6 1189.31 402.67 1199.72 442.52" stroke="black" stroke-width="7.7" stroke-miterlimit="10"/>
<path d="M887.24 268.119C858.32 267.199 826.51 262.289 797.77 265.029C776.77 267.029 754.55 295.519 741.08 311.659C727.61 327.799 719 349.389 708.33 367.549L667.15 437.629" stroke="black" stroke-width="7.7" stroke-miterlimit="10"/>
<path d="M634.75 574.25C627.921 596.701 626.408 620.433 630.33 643.57" stroke="black" stroke-width="7.7" stroke-miterlimit="10"/>
<path d="M1268.48 704.97V736.3" stroke="black" stroke-width="7.7" stroke-miterlimit="10"/>
<path d="M888.65 96.9599C934.932 93.7934 981.401 94.6265 1027.54 99.4499C1087.77 105.76 1150.86 120.75 1193.64 163.61" stroke="black" stroke-width="7.7" stroke-miterlimit="10"/>
<path d="M1138.68 134.21C1183.12 162.69 1217.14 205.56 1240.86 252.73C1264.58 299.9 1278.52 351.39 1288.6 403.21" stroke="black" stroke-width="7.7" stroke-miterlimit="10"/>
<path d="M1273.64 284.6C1295.18 408.73 1311.78 537.35 1312.76 662.83C1312.87 677 1312.99 691.32 1316.16 705.14" stroke="black" stroke-width="7.7" stroke-miterlimit="10"/>
<path d="M878.13 96.5996L883.59 99.6996C832.2 104.622 781.792 116.949 733.93 136.3C715.2 143.88 705.36 162.5 688.7 174.47C665.7 190.98 644.7 213.98 632.46 239.67C626.77 251.57 627.96 263.02 624.7 275.67C620.46 292.16 613.78 307.98 608.14 324.01C578.14 409.46 571.07 501.01 564.24 591.29C562.493 614.396 560.747 637.5 559 660.6" stroke="black" stroke-width="7.7" stroke-miterlimit="10"/>
<path d="M574.02 570.5C572.686 628.613 576.564 686.729 585.61 744.15" stroke="black" stroke-width="7.7" stroke-miterlimit="10"/>
<path d="M889.33 267.44C938.33 267.39 987.49 265.26 1036.65 268.44C1053.65 269.55 1076.82 268.28 1093 273.82C1111.28 280.1 1127.22 304.18 1137.25 319.54C1149.79 338.78 1159.35 359.67 1168.48 380.54" stroke="black" stroke-width="7.7" stroke-miterlimit="10"/>
<path d="M1155.33 334.949C1161.03 375.429 1183.9 410.949 1194.06 449.789" stroke="black" stroke-width="7.7" stroke-miterlimit="10"/>
<path d="M886.63 272.61C858.1 270.94 826.74 264.84 798.33 266.74C777.61 268.11 755.6 297.06 742.33 313.32C729.06 329.58 720.75 351.67 710.33 370.01C696.917 393.623 683.533 417.113 670.18 440.48" stroke="black" stroke-width="7.7" stroke-miterlimit="10"/>
<path d="M639.44 578.84C632.848 601.7 631.602 625.771 635.8 649.19" stroke="black" stroke-width="7.7" stroke-miterlimit="10"/>
<path d="M1263.43 703.17C1263.53 713.217 1263.64 723.267 1263.75 733.32" stroke="black" stroke-width="7.7" stroke-miterlimit="10"/>
<path d="M891.04 92.3397C937.448 90.9779 983.883 93.8464 1029.77 100.91C1089.77 110.04 1152.05 128.42 1193.28 173.02" stroke="black" stroke-width="7.7" stroke-miterlimit="10"/>
<path d="M1139.44 141.31C1182.73 172.11 1215.25 216.14 1237.9 263.31C1260.55 310.48 1273.73 360.99 1283.39 411.48" stroke="black" stroke-width="7.7" stroke-miterlimit="10"/>
<path d="M1270.11 295.279C1289.21 417.719 1305.76 541.569 1307.5 662.369C1307.7 676.019 1307.93 689.779 1311.22 703.079" stroke="black" stroke-width="7.7" stroke-miterlimit="10"/>
<path d="M880.54 91.5L885.91 95.06C834.507 98.1383 783.899 109.215 735.91 127.89C717.17 135.18 707.23 154.61 690.62 166.53C667.7 182.99 646.84 206.23 634.68 232.53C629.04 244.71 630.25 256.8 627.06 269.89C622.9 286.89 616.33 303 610.81 319.34C581.41 406.34 574.98 499.91 568.81 591.95C567.23 615.49 565.637 639.003 564.03 662.49" stroke="black" stroke-width="7.7" stroke-miterlimit="10"/>
<path d="M578.52 571.32C577.646 630.883 582.084 690.405 591.78 749.18" stroke="black" stroke-width="7.7" stroke-miterlimit="10"/>
<circle cx="763.186" cy="993.875" r="3" transform="rotate(63.1094 763.186 993.875)" fill="black"/>
<circle cx="782.208" cy="1035.81" r="3" transform="rotate(63.1094 782.208 1035.81)" fill="black"/>
<circle cx="779.017" cy="1025.09" r="3" transform="rotate(63.1094 779.017 1025.09)" fill="black"/>
<circle cx="784.756" cy="1012.09" r="3" transform="rotate(63.1094 784.756 1012.09)" fill="black"/>
<circle cx="755.197" cy="1004.65" r="3" transform="rotate(63.1094 755.197 1004.65)" fill="black"/>
<circle cx="773.373" cy="976.376" r="3" transform="rotate(63.1094 773.373 976.376)" fill="black"/>
<circle cx="775.321" cy="1004.54" r="3" transform="rotate(63.1094 775.321 1004.54)" fill="black"/>
<circle cx="766.88" cy="1014.43" r="3" transform="rotate(63.1094 766.88 1014.43)" fill="black"/>
<circle cx="778.386" cy="992.895" r="3" transform="rotate(63.1094 778.386 992.895)" fill="black"/>
<circle cx="747.486" cy="934.699" r="3" transform="rotate(91.2167 747.486 934.699)" fill="black"/>
<circle cx="743.373" cy="974.839" r="3" transform="rotate(91.2167 743.373 974.839)" fill="black"/>
<circle cx="752.394" cy="988.203" r="3" transform="rotate(91.2167 752.394 988.203)" fill="black"/>
<circle cx="757.931" cy="960.928" r="3" transform="rotate(91.2167 757.931 960.928)" fill="black"/>
<circle cx="758.133" cy="975.201" r="3" transform="rotate(91.2167 758.133 975.201)" fill="black"/>
<circle cx="764.716" cy="924.063" r="3" transform="rotate(91.2167 764.716 924.063)" fill="black"/>
<circle cx="753.166" cy="949.824" r="3" transform="rotate(91.2167 753.166 949.824)" fill="black"/>
<circle cx="741.063" cy="954.568" r="3" transform="rotate(91.2167 741.063 954.568)" fill="black"/>
<circle cx="761.356" cy="940.995" r="3" transform="rotate(91.2167 761.356 940.995)" fill="black"/>
<circle cx="795.378" cy="867.488" r="3" transform="rotate(139.234 795.378 867.488)" fill="black"/>
<circle cx="759.231" cy="896.01" r="3" transform="rotate(139.234 759.231 896.01)" fill="black"/>
<circle cx="768.869" cy="890.343" r="3" transform="rotate(139.234 768.869 890.343)" fill="black"/>
<circle cx="782.868" cy="892.797" r="3" transform="rotate(139.234 782.868 892.797)" fill="black"/>
<circle cx="782.998" cy="862.318" r="3" transform="rotate(139.234 782.998 862.318)" fill="black"/>
<circle cx="814.809" cy="873.181" r="3" transform="rotate(139.234 814.809 873.181)" fill="black"/>
<circle cx="787.934" cy="881.826" r="3" transform="rotate(139.234 787.934 881.826)" fill="black"/>
<circle cx="776.312" cy="876.003" r="3" transform="rotate(139.234 776.312 876.003)" fill="black"/>
<circle cx="799.975" cy="882.009" r="3" transform="rotate(139.234 799.975 882.009)" fill="black"/>
<circle cx="849.062" cy="838.056" r="3" transform="rotate(167.342 849.062 838.056)" fill="black"/>
<circle cx="809.108" cy="843.689" r="3" transform="rotate(167.342 809.108 843.689)" fill="black"/>
<circle cx="798.296" cy="855.65" r="3" transform="rotate(167.342 798.296 855.65)" fill="black"/>
<circle cx="826.103" cy="854.486" r="3" transform="rotate(167.342 826.103 854.486)" fill="black"/>
<circle cx="812.295" cy="858.105" r="3" transform="rotate(167.342 812.295 858.105)" fill="black"/>
<circle cx="863.52" cy="852.232" r="3" transform="rotate(167.342 863.52 852.232)" fill="black"/>
<circle cx="835.741" cy="847.197" r="3" transform="rotate(167.342 835.741 847.197)" fill="black"/>
<circle cx="828.233" cy="836.585" r="3" transform="rotate(167.342 828.233 836.585)" fill="black"/>
<circle cx="846.276" cy="853.031" r="3" transform="rotate(167.342 846.276 853.031)" fill="black"/>
<circle cx="927.328" cy="1067.37" r="3" transform="rotate(-3.26185 927.328 1067.37)" fill="black"/>
<circle cx="973.368" cy="1066.75" r="3" transform="rotate(-3.26185 973.368 1066.75)" fill="black"/>
<circle cx="962.272" cy="1065.38" r="3" transform="rotate(-3.26185 962.272 1065.38)" fill="black"/>
<circle cx="952.661" cy="1054.91" r="3" transform="rotate(-3.26185 952.661 1054.91)" fill="black"/>
<circle cx="934.002" cy="1079.01" r="3" transform="rotate(-3.26185 934.002 1079.01)" fill="black"/>
<circle cx="915.379" cy="1051.02" r="3" transform="rotate(-3.26185 915.379 1051.02)" fill="black"/>
<circle cx="941.963" cy="1060.52" r="3" transform="rotate(-3.26185 941.963 1060.52)" fill="black"/>
<circle cx="947.638" cy="1072.22" r="3" transform="rotate(-3.26185 947.638 1072.22)" fill="black"/>
<circle cx="932.522" cy="1053.05" r="3" transform="rotate(-3.26185 932.522 1053.05)" fill="black"/>
<circle cx="866.821" cy="1058.03" r="3" transform="rotate(24.8455 866.821 1058.03)" fill="black"/>
<circle cx="901.947" cy="1077.89" r="3" transform="rotate(24.8455 901.947 1077.89)" fill="black"/>
<circle cx="917.807" cy="1074.98" r="3" transform="rotate(24.8455 917.807 1074.98)" fill="black"/>
<circle cx="895.037" cy="1058.98" r="3" transform="rotate(24.8455 895.037 1058.98)" fill="black"/>
<circle cx="908.195" cy="1064.51" r="3" transform="rotate(24.8455 908.195 1064.51)" fill="black"/>
<circle cx="863.983" cy="1037.98" r="3" transform="rotate(24.8455 863.983 1037.98)" fill="black"/>
<circle cx="882.955" cy="1058.89" r="3" transform="rotate(24.8455 882.955 1058.89)" fill="black"/>
<circle cx="882.45" cy="1071.88" r="3" transform="rotate(24.8455 882.45 1071.88)" fill="black"/>
<circle cx="878.148" cy="1047.85" r="3" transform="rotate(24.8455 878.148 1047.85)" fill="black"/>
<circle cx="973.313" cy="1071.68" r="3.75577" transform="rotate(-8.84666 973.313 1071.68)" fill="black"/>
<circle cx="1030.6" cy="1065.3" r="3.75577" transform="rotate(-8.84666 1030.6 1065.3)" fill="black"/>
<circle cx="1016.61" cy="1064.94" r="3.75577" transform="rotate(-8.84666 1016.61 1064.94)" fill="black"/>
<circle cx="1003.36" cy="1053.07" r="3.75577" transform="rotate(-8.84666 1003.36 1053.07)" fill="black"/>
<circle cx="983.046" cy="1085.37" r="3.75577" transform="rotate(-8.84666 983.046 1085.37)" fill="black"/>
<circle cx="956.433" cy="1052.77" r="3.75577" transform="rotate(-8.84666 956.433 1052.77)" fill="black"/>
<circle cx="990.714" cy="1061.37" r="3.75577" transform="rotate(-8.84666 990.714 1061.37)" fill="black"/>
<circle cx="999.21" cy="1075.25" r="3.75577" transform="rotate(-8.84666 999.21 1075.25)" fill="black"/>
<circle cx="978.04" cy="1053.21" r="3.75577" transform="rotate(-8.84666 978.04 1053.21)" fill="black"/>
<circle cx="896.785" cy="1067.42" r="3.75577" transform="rotate(19.2607 896.785 1067.42)" fill="black"/>
<circle cx="942.97" cy="1087.88" r="3.75577" transform="rotate(19.2607 942.97 1087.88)" fill="black"/>
<circle cx="962.376" cy="1082.33" r="3.75577" transform="rotate(19.2607 962.376 1082.33)" fill="black"/>
<circle cx="932.057" cy="1065.16" r="3.75577" transform="rotate(19.2607 932.057 1065.16)" fill="black"/>
<circle cx="949.125" cy="1070.45" r="3.75577" transform="rotate(19.2607 949.125 1070.45)" fill="black"/>
<circle cx="890.805" cy="1042.78" r="3.75577" transform="rotate(19.2607 890.805 1042.78)" fill="black"/>
<circle cx="916.992" cy="1066.52" r="3.75577" transform="rotate(19.2607 916.992 1066.52)" fill="black"/>
<circle cx="917.945" cy="1082.77" r="3.75577" transform="rotate(19.2607 917.945 1082.77)" fill="black"/>
<circle cx="909.657" cy="1053.35" r="3.75577" transform="rotate(19.2607 909.657 1053.35)" fill="black"/>
<circle cx="1073.28" cy="1055.31" r="3.66169" transform="rotate(-51.1 1073.28 1055.31)" fill="black"/>
<circle cx="1110.44" cy="1013.15" r="3.66169" transform="rotate(-51.1 1110.44 1013.15)" fill="black"/>
<circle cx="1100.11" cy="1022.06" r="3.66169" transform="rotate(-51.1 1100.11 1022.06)" fill="black"/>
<circle cx="1082.76" cy="1022.18" r="3.66169" transform="rotate(-51.1 1082.76 1022.18)" fill="black"/>
<circle cx="1089.28" cy="1058.81" r="3.66169" transform="rotate(-51.1 1089.28 1058.81)" fill="black"/>
<circle cx="1048.7" cy="1052.73" r="3.66169" transform="rotate(-51.1 1048.7 1052.73)" fill="black"/>
<circle cx="1079.08" cy="1036.46" r="3.66169" transform="rotate(-51.1 1079.08 1036.46)" fill="black"/>
<circle cx="1094.31" cy="1040.91" r="3.66169" transform="rotate(-51.1 1094.31 1040.91)" fill="black"/>
<circle cx="1064.58" cy="1038.88" r="3.66169" transform="rotate(-51.1 1064.58 1038.88)" fill="black"/>
<circle cx="1015.27" cy="1102.41" r="3.66169" transform="rotate(-22.9927 1015.27 1102.41)" fill="black"/>
<circle cx="1062.01" cy="1086.9" r="3.66169" transform="rotate(-22.9927 1062.01 1086.9)" fill="black"/>
<circle cx="1072.37" cy="1070.17" r="3.66169" transform="rotate(-22.9927 1072.37 1070.17)" fill="black"/>
<circle cx="1039.24" cy="1077.65" r="3.66169" transform="rotate(-22.9927 1039.24 1077.65)" fill="black"/>
<circle cx="1055.02" cy="1070.28" r="3.66169" transform="rotate(-22.9927 1055.02 1070.28)" fill="black"/>
<circle cx="994.801" cy="1088.55" r="3.66169" transform="rotate(-22.9927 994.801 1088.55)" fill="black"/>
<circle cx="1029.26" cy="1088.51" r="3.66169" transform="rotate(-22.9927 1029.26 1088.51)" fill="black"/>
<circle cx="1040.6" cy="1099.61" r="3.66169" transform="rotate(-22.9927 1040.6 1099.61)" fill="black"/>
<circle cx="1015.33" cy="1083.82" r="3.66169" transform="rotate(-22.9927 1015.33 1083.82)" fill="black"/>
<circle cx="964" cy="1111" r="3" fill="black"/>
<circle cx="1010" cy="1113" r="3" fill="black"/>
<circle cx="999" cy="1111" r="3" fill="black"/>
<circle cx="990" cy="1100" r="3" fill="black"/>
<circle cx="970" cy="1123" r="3" fill="black"/>
<circle cx="953" cy="1094" r="3" fill="black"/>
<circle cx="979" cy="1105" r="3" fill="black"/>
<circle cx="984" cy="1117" r="3" fill="black"/>
<circle cx="970" cy="1097" r="3" fill="black"/>
<circle cx="901" cy="886" r="3" fill="black"/>
<circle cx="924" cy="878" r="3" fill="black"/>
<circle cx="961" cy="878" r="3" fill="black"/>
<circle cx="1010" cy="884" r="3" fill="black"/>
<circle cx="1056" cy="886" r="3" fill="black"/>
<circle cx="1045" cy="884" r="3" fill="black"/>
<circle cx="1036" cy="873" r="3" fill="black"/>
<circle cx="989" cy="881" r="3" fill="black"/>
<circle cx="993" cy="899" r="3" fill="black"/>
<circle cx="999" cy="867" r="3" fill="black"/>
<circle cx="1025" cy="878" r="3" fill="black"/>
<circle cx="1030" cy="890" r="3" fill="black"/>
<circle cx="1016" cy="870" r="3" fill="black"/>
<circle cx="904.121" cy="1098.24" r="3" transform="rotate(28.1074 904.121 1098.24)" fill="black"/>
<circle cx="938.059" cy="1120.06" r="3" transform="rotate(28.1074 938.059 1120.06)" fill="black"/>
<circle cx="954.059" cy="1118.06" r="3" transform="rotate(28.1074 954.059 1118.06)" fill="black"/>
<circle cx="932.237" cy="1100.78" r="3" transform="rotate(28.1074 932.237 1100.78)" fill="black"/>
<circle cx="945.059" cy="1107.06" r="3" transform="rotate(28.1074 945.059 1107.06)" fill="black"/>
<circle cx="902.428" cy="1078.06" r="3" transform="rotate(28.1074 902.428 1078.06)" fill="black"/>
<circle cx="920.179" cy="1100.01" r="3" transform="rotate(28.1074 920.179 1100.01)" fill="black"/>
<circle cx="918.936" cy="1112.95" r="3" transform="rotate(28.1074 918.936 1112.95)" fill="black"/>
<circle cx="916.009" cy="1088.71" r="3" transform="rotate(28.1074 916.009 1088.71)" fill="black"/>
<circle cx="853.641" cy="1076.74" r="3" transform="rotate(33.8964 853.641 1076.74)" fill="black"/>
<circle cx="890.708" cy="1104.05" r="3" transform="rotate(33.8964 890.708 1104.05)" fill="black"/>
<circle cx="882.693" cy="1096.26" r="3" transform="rotate(33.8964 882.693 1096.26)" fill="black"/>
<circle cx="881.357" cy="1082.11" r="3" transform="rotate(33.8964 881.357 1082.11)" fill="black"/>
<circle cx="851.929" cy="1090.04" r="3" transform="rotate(33.8964 851.929 1090.04)" fill="black"/>
<circle cx="853.992" cy="1056.49" r="3" transform="rotate(33.8964 853.992 1056.49)" fill="black"/>
<circle cx="869.438" cy="1080.12" r="3" transform="rotate(33.8964 869.438 1080.12)" fill="black"/>
<circle cx="866.896" cy="1092.87" r="3" transform="rotate(33.8964 866.896 1092.87)" fill="black"/>
<circle cx="866.429" cy="1068.46" r="3" transform="rotate(33.8964 866.429 1068.46)" fill="black"/>
<circle cx="811.057" cy="1032.75" r="3" transform="rotate(62.0037 811.057 1032.75)" fill="black"/>
<circle cx="827.058" cy="1069.79" r="3" transform="rotate(62.0037 827.058 1069.79)" fill="black"/>
<circle cx="841.453" cy="1077.05" r="3" transform="rotate(62.0037 841.453 1077.05)" fill="black"/>
<circle cx="832.975" cy="1050.55" r="3" transform="rotate(62.0037 832.975 1050.55)" fill="black"/>
<circle cx="840.117" cy="1062.9" r="3" transform="rotate(62.0037 840.117 1062.9)" fill="black"/>
<circle cx="820.905" cy="1015.06" r="3" transform="rotate(62.0037 820.905 1015.06)" fill="black"/>
<circle cx="823.397" cy="1043.18" r="3" transform="rotate(62.0037 823.397 1043.18)" fill="black"/>
<circle cx="815.148" cy="1053.23" r="3" transform="rotate(62.0037 815.148 1053.23)" fill="black"/>
<circle cx="826.236" cy="1031.48" r="3" transform="rotate(62.0037 826.236 1031.48)" fill="black"/>
<circle cx="1047.76" cy="1034" r="3" transform="rotate(-44.4045 1047.76 1034)" fill="black"/>
<circle cx="1082.02" cy="1003.24" r="3" transform="rotate(-44.4045 1082.02 1003.24)" fill="black"/>
<circle cx="1072.76" cy="1009.51" r="3" transform="rotate(-44.4045 1072.76 1009.51)" fill="black"/>
<circle cx="1058.64" cy="1007.95" r="3" transform="rotate(-44.4045 1058.64 1007.95)" fill="black"/>
<circle cx="1060.44" cy="1038.38" r="3" transform="rotate(-44.4045 1060.44 1038.38)" fill="black"/>
<circle cx="1028" cy="1029.55" r="3" transform="rotate(-44.4045 1028 1029.55)" fill="black"/>
<circle cx="1054.28" cy="1019.22" r="3" transform="rotate(-44.4045 1054.28 1019.22)" fill="black"/>
<circle cx="1066.25" cy="1024.29" r="3" transform="rotate(-44.4045 1066.25 1024.29)" fill="black"/>
<circle cx="1042.25" cy="1019.8" r="3" transform="rotate(-44.4045 1042.25 1019.8)" fill="black"/>
<circle cx="996.05" cy="1066.78" r="3" transform="rotate(-16.2972 996.05 1066.78)" fill="black"/>
<circle cx="1035.57" cy="1058.62" r="3" transform="rotate(-16.2972 1035.57 1058.62)" fill="black"/>
<circle cx="1045.6" cy="1046" r="3" transform="rotate(-16.2972 1045.6 1046)" fill="black"/>
<circle cx="1017.92" cy="1048.93" r="3" transform="rotate(-16.2972 1017.92 1048.93)" fill="black"/>
<circle cx="1031.47" cy="1044.44" r="3" transform="rotate(-16.2972 1031.47 1044.44)" fill="black"/>
<circle cx="980.721" cy="1053.55" r="3" transform="rotate(-16.2972 980.721 1053.55)" fill="black"/>
<circle cx="1008.76" cy="1056.81" r="3" transform="rotate(-16.2972 1008.76 1056.81)" fill="black"/>
<circle cx="1016.93" cy="1066.93" r="3" transform="rotate(-16.2972 1016.93 1066.93)" fill="black"/>
<circle cx="997.88" cy="1051.66" r="3" transform="rotate(-16.2972 997.88 1051.66)" fill="black"/>
<circle cx="770.594" cy="924.895" r="2.6557" transform="rotate(92.3552 770.594 924.895)" fill="black"/>
<circle cx="767.151" cy="965.509" r="2.6557" transform="rotate(92.3552 767.151 965.509)" fill="black"/>
<circle cx="769.321" cy="955.853" r="2.6557" transform="rotate(92.3552 769.321 955.853)" fill="black"/>
<circle cx="779.377" cy="948.292" r="2.6557" transform="rotate(92.3552 779.377 948.292)" fill="black"/>
<circle cx="759.763" cy="929.766" r="2.6557" transform="rotate(92.3552 759.763 929.766)" fill="black"/>
<circle cx="786.03" cy="915.785" r="2.6557" transform="rotate(92.3552 786.03 915.785)" fill="black"/>
<circle cx="775.354" cy="938.381" r="2.6557" transform="rotate(92.3552 775.354 938.381)" fill="black"/>
<circle cx="764.559" cy="942.367" r="2.6557" transform="rotate(92.3552 764.559 942.367)" fill="black"/>
<circle cx="782.759" cy="930.711" r="2.6557" transform="rotate(92.3552 782.759 930.711)" fill="black"/>
<circle cx="784.061" cy="872.398" r="2.6557" transform="rotate(120.463 784.061 872.398)" fill="black"/>
<circle cx="763.524" cy="901.622" r="2.6557" transform="rotate(120.463 763.524 901.622)" fill="black"/>
<circle cx="764.711" cy="915.847" r="2.6557" transform="rotate(120.463 764.711 915.847)" fill="black"/>
<circle cx="780.785" cy="897.174" r="2.6557" transform="rotate(120.463 780.785 897.174)" fill="black"/>
<circle cx="774.768" cy="908.286" r="2.6557" transform="rotate(120.463 774.768 908.286)" fill="black"/>
<circle cx="801.969" cy="871.635" r="2.6557" transform="rotate(120.463 801.969 871.635)" fill="black"/>
<circle cx="781.907" cy="886.537" r="2.6557" transform="rotate(120.463 781.907 886.537)" fill="black"/>
<circle cx="770.506" cy="884.967" r="2.6557" transform="rotate(120.463 770.506 884.967)" fill="black"/>
<circle cx="792.051" cy="883.259" r="2.6557" transform="rotate(120.463 792.051 883.259)" fill="black"/>
<circle cx="1045.25" cy="1066.95" r="3" transform="rotate(135.12 1045.25 1066.95)" fill="black"/>
<circle cx="1011.24" cy="1097.99" r="3" transform="rotate(135.12 1011.24 1097.99)" fill="black"/>
<circle cx="1020.45" cy="1091.64" r="3" transform="rotate(135.12 1020.45 1091.64)" fill="black"/>
<circle cx="1034.59" cy="1093.09" r="3" transform="rotate(135.12 1034.59 1093.09)" fill="black"/>
<circle cx="1032.53" cy="1062.68" r="3" transform="rotate(135.12 1032.53 1062.68)" fill="black"/>
<circle cx="1065.04" cy="1071.23" r="3" transform="rotate(135.12 1065.04 1071.23)" fill="black"/>
<circle cx="1038.85" cy="1081.78" r="3" transform="rotate(135.12 1038.85 1081.78)" fill="black"/>
<circle cx="1026.84" cy="1076.81" r="3" transform="rotate(135.12 1026.84 1076.81)" fill="black"/>
<circle cx="1050.88" cy="1081.1" r="3" transform="rotate(135.12 1050.88 1081.1)" fill="black"/>
<circle cx="1096.68" cy="1033.74" r="3" transform="rotate(163.227 1096.68 1033.74)" fill="black"/>
<circle cx="1057.24" cy="1042.22" r="3" transform="rotate(163.227 1057.24 1042.22)" fill="black"/>
<circle cx="1047.31" cy="1054.93" r="3" transform="rotate(163.227 1047.31 1054.93)" fill="black"/>
<circle cx="1074.96" cy="1051.77" r="3" transform="rotate(163.227 1074.96 1051.77)" fill="black"/>
<circle cx="1061.45" cy="1056.37" r="3" transform="rotate(163.227 1061.45 1056.37)" fill="black"/>
<circle cx="1085.74" cy="1065.74" r="3" transform="rotate(163.227 1085.74 1065.74)" fill="black"/>
<circle cx="1084.05" cy="1043.81" r="3" transform="rotate(163.227 1084.05 1043.81)" fill="black"/>
<circle cx="1075.8" cy="1033.77" r="3" transform="rotate(163.227 1075.8 1033.77)" fill="black"/>
<circle cx="1094.98" cy="1048.87" r="3" transform="rotate(163.227 1094.98 1048.87)" fill="black"/>
<circle cx="1111.14" cy="946.947" r="3" transform="rotate(52.129 1111.14 946.947)" fill="black"/>
<circle cx="1137.8" cy="984.487" r="3" transform="rotate(52.129 1137.8 984.487)" fill="black"/>
<circle cx="1132.63" cy="974.576" r="3" transform="rotate(52.129 1132.63 974.576)" fill="black"/>
<circle cx="1135.78" cy="960.719" r="3" transform="rotate(52.129 1135.78 960.719)" fill="black"/>
<circle cx="1088.86" cy="942.735" r="3" transform="rotate(52.129 1088.86 942.735)" fill="black"/>
<circle cx="1117.81" cy="927.827" r="3" transform="rotate(52.129 1117.81 927.827)" fill="black"/>
<circle cx="1125.08" cy="955.104" r="3" transform="rotate(52.129 1125.08 955.104)" fill="black"/>
<circle cx="1118.68" cy="966.418" r="3" transform="rotate(52.129 1118.68 966.418)" fill="black"/>
<circle cx="1125.88" cy="943.089" r="3" transform="rotate(52.129 1125.88 943.089)" fill="black"/>
<circle cx="949.84" cy="1107.99" r="3.85975" transform="rotate(0.272474 949.84 1107.99)" fill="black"/>
<circle cx="1009.01" cy="1110.84" r="3.85975" transform="rotate(0.272474 1009.01 1110.84)" fill="black"/>
<circle cx="994.871" cy="1108.2" r="3.85975" transform="rotate(0.272474 994.871 1108.2)" fill="black"/>
<circle cx="983.36" cy="1093.99" r="3.85975" transform="rotate(0.272474 983.36 1093.99)" fill="black"/>
<circle cx="957.486" cy="1123.46" r="3.85975" transform="rotate(0.272474 957.486 1123.46)" fill="black"/>
<circle cx="935.793" cy="1086.05" r="3.85975" transform="rotate(0.272474 935.793 1086.05)" fill="black"/>
<circle cx="969.176" cy="1100.36" r="3.85975" transform="rotate(0.272474 969.176 1100.36)" fill="black"/>
<circle cx="975.535" cy="1115.83" r="3.85975" transform="rotate(0.272474 975.535 1115.83)" fill="black"/>
<circle cx="957.645" cy="1090.01" r="3.85975" transform="rotate(0.272474 957.645 1090.01)" fill="black"/>
<circle cx="872.881" cy="1091.2" r="3.85975" transform="rotate(28.3798 872.881 1091.2)" fill="black"/>
<circle cx="916.413" cy="1119.48" r="3.85975" transform="rotate(28.3798 916.413 1119.48)" fill="black"/>
<circle cx="937.009" cy="1117.01" r="3.85975" transform="rotate(28.3798 937.009 1117.01)" fill="black"/>
<circle cx="909.04" cy="1094.65" r="3.85975" transform="rotate(28.3798 909.04 1094.65)" fill="black"/>
<circle cx="925.498" cy="1102.8" r="3.85975" transform="rotate(28.3798 925.498 1102.8)" fill="black"/>
<circle cx="870.826" cy="1065.23" r="3.85975" transform="rotate(28.3798 870.826 1065.23)" fill="black"/>
<circle cx="893.531" cy="1093.58" r="3.85975" transform="rotate(28.3798 893.531 1093.58)" fill="black"/>
<circle cx="891.852" cy="1110.22" r="3.85975" transform="rotate(28.3798 891.852 1110.22)" fill="black"/>
<circle cx="888.235" cy="1079.02" r="3.85975" transform="rotate(28.3798 888.235 1079.02)" fill="black"/>
<circle cx="829.277" cy="1062.1" r="3.64867" transform="rotate(36.688 829.277 1062.1)" fill="black"/>
<circle cx="872.689" cy="1097.47" r="3.64867" transform="rotate(36.688 872.689 1097.47)" fill="black"/>
<circle cx="863.413" cy="1087.53" r="3.64867" transform="rotate(36.688 863.413 1087.53)" fill="black"/>
<circle cx="862.63" cy="1070.26" r="3.64867" transform="rotate(36.688 862.63 1070.26)" fill="black"/>
<circle cx="826.41" cy="1078.16" r="3.64867" transform="rotate(36.688 826.41 1078.16)" fill="black"/>
<circle cx="830.902" cy="1037.52" r="3.64867" transform="rotate(36.688 830.902 1037.52)" fill="black"/>
<circle cx="848.266" cy="1067.14" r="3.64867" transform="rotate(36.688 848.266 1067.14)" fill="black"/>
<circle cx="844.424" cy="1082.48" r="3.64867" transform="rotate(36.688 844.424 1082.48)" fill="black"/>
<circle cx="845.302" cy="1052.8" r="3.64867" transform="rotate(36.688 845.302 1052.8)" fill="black"/>
<circle cx="780.153" cy="1006.14" r="3.64867" transform="rotate(64.7953 780.153 1006.14)" fill="black"/>
<circle cx="797.397" cy="1052.08" r="3.64867" transform="rotate(64.7953 797.397 1052.08)" fill="black"/>
<circle cx="814.454" cy="1061.76" r="3.64867" transform="rotate(64.7953 814.454 1061.76)" fill="black"/>
<circle cx="805.724" cy="1029.05" r="3.64867" transform="rotate(64.7953 805.724 1029.05)" fill="black"/>
<circle cx="813.669" cy="1044.49" r="3.64867" transform="rotate(64.7953 813.669 1044.49)" fill="black"/>
<circle cx="793.163" cy="985.228" r="3.64867" transform="rotate(64.7953 793.163 985.228)" fill="black"/>
<circle cx="794.525" cy="1019.54" r="3.64867" transform="rotate(64.7953 794.525 1019.54)" fill="black"/>
<circle cx="783.91" cy="1031.26" r="3.64867" transform="rotate(64.7953 783.91 1031.26)" fill="black"/>
<circle cx="798.667" cy="1005.49" r="3.64867" transform="rotate(64.7953 798.667 1005.49)" fill="black"/>
<circle r="3.96471" transform="matrix(-0.830048 0.557693 0.557693 0.830048 1042.49 1091.88)" fill="black"/>
<circle r="3.96471" transform="matrix(-0.830048 0.557693 0.557693 0.830048 993.502 1127.97)" fill="black"/>
<circle r="3.96471" transform="matrix(-0.830048 0.557693 0.557693 0.830048 1004.09 1117.67)" fill="black"/>
<circle r="3.96471" transform="matrix(-0.830048 0.557693 0.557693 0.830048 1005.86 1098.97)" fill="black"/>
<circle r="3.96471" transform="matrix(-0.830048 0.557693 0.557693 0.830048 1044.75 1109.46)" fill="black"/>
<circle r="3.96471" transform="matrix(-0.830048 0.557693 0.557693 0.830048 1042.03 1065.12)" fill="black"/>
<circle r="3.96471" transform="matrix(-0.830048 0.557693 0.557693 0.830048 1021.61 1096.35)" fill="black"/>
<circle r="3.96471" transform="matrix(-0.830048 0.557693 0.557693 0.830048 1024.97 1113.2)" fill="black"/>
<circle r="3.96471" transform="matrix(-0.830048 0.557693 0.557693 0.830048 1025.59 1080.94)" fill="black"/>
<circle r="3.96471" transform="matrix(-0.469414 0.882978 0.882978 0.469414 1098.77 1033.74)" fill="black"/>
<circle r="3.96471" transform="matrix(-0.469414 0.882978 0.882978 0.469414 1077.62 1082.7)" fill="black"/>
<circle r="3.96471" transform="matrix(-0.469414 0.882978 0.882978 0.469414 1058.6 1092.29)" fill="black"/>
<circle r="3.96471" transform="matrix(-0.469414 0.882978 0.882978 0.469414 1069.8 1057.26)" fill="black"/>
<circle r="3.96471" transform="matrix(-0.469414 0.882978 0.882978 0.469414 1060.36 1073.6)" fill="black"/>
<circle r="3.96471" transform="matrix(-0.469414 0.882978 0.882978 0.469414 1085.75 1010.36)" fill="black"/>
<circle r="3.96471" transform="matrix(-0.469414 0.882978 0.882978 0.469414 1082.46 1047.53)" fill="black"/>
<circle r="3.96471" transform="matrix(-0.469414 0.882978 0.882978 0.469414 1093.36 1060.81)" fill="black"/>
<circle r="3.96471" transform="matrix(-0.469414 0.882978 0.882978 0.469414 1078.71 1032.06)" fill="black"/>
<circle cx="915.753" cy="1100.04" r="4.11248" transform="rotate(1.558 915.753 1100.04)" fill="black"/>
<circle cx="978.714" cy="1104.5" r="4.11248" transform="rotate(1.558 978.714 1104.5)" fill="black"/>
<circle cx="963.715" cy="1101.35" r="4.11248" transform="rotate(1.558 963.715 1101.35)" fill="black"/>
<circle cx="951.793" cy="1085.94" r="4.11248" transform="rotate(1.558 951.793 1085.94)" fill="black"/>
<circle cx="923.528" cy="1116.71" r="4.11248" transform="rotate(1.558 923.528 1116.71)" fill="black"/>
<circle cx="901.314" cy="1076.34" r="4.11248" transform="rotate(1.558 901.314 1076.34)" fill="black"/>
<circle cx="936.532" cy="1092.38" r="4.11248" transform="rotate(1.558 936.532 1092.38)" fill="black"/>
<circle cx="942.936" cy="1109.01" r="4.11248" transform="rotate(1.558 942.936 1109.01)" fill="black"/>
<circle cx="924.497" cy="1081.08" r="4.11248" transform="rotate(1.558 924.497 1081.08)" fill="black"/>
<circle cx="834.176" cy="1080.32" r="4.11248" transform="rotate(29.6653 834.176 1080.32)" fill="black"/>
<circle cx="879.871" cy="1111.49" r="4.11248" transform="rotate(29.6653 879.871 1111.49)" fill="black"/>
<circle cx="901.869" cy="1109.35" r="4.11248" transform="rotate(29.6653 901.869 1109.35)" fill="black"/>
<circle cx="872.611" cy="1084.86" r="4.11248" transform="rotate(29.6653 872.611 1084.86)" fill="black"/>
<circle cx="889.947" cy="1093.94" r="4.11248" transform="rotate(29.6653 889.947 1093.94)" fill="black"/>
<circle cx="832.608" cy="1052.61" r="4.11248" transform="rotate(29.6653 832.608 1052.61)" fill="black"/>
<circle cx="856.116" cy="1083.35" r="4.11248" transform="rotate(29.6653 856.116 1083.35)" fill="black"/>
<circle cx="853.93" cy="1101.04" r="4.11248" transform="rotate(29.6653 853.93 1101.04)" fill="black"/>
<circle cx="850.823" cy="1067.72" r="4.11248" transform="rotate(29.6653 850.823 1067.72)" fill="black"/>
<circle cx="1124.37" cy="997.835" r="3" transform="rotate(-83.9913 1124.37 997.835)" fill="black"/>
<circle cx="1131.18" cy="952.297" r="3" transform="rotate(-83.9913 1131.18 952.297)" fill="black"/>
<circle cx="1128.03" cy="963.027" r="3" transform="rotate(-83.9913 1128.03 963.027)" fill="black"/>
<circle cx="1116.15" cy="970.827" r="3" transform="rotate(-83.9913 1116.15 970.827)" fill="black"/>
<circle cx="1136.93" cy="993.124" r="3" transform="rotate(-83.9913 1136.93 993.124)" fill="black"/>
<circle cx="1106.31" cy="1007" r="3" transform="rotate(-83.9913 1106.31 1007)" fill="black"/>
<circle cx="1119.97" cy="982.289" r="3" transform="rotate(-83.9913 1119.97 982.289)" fill="black"/>
<circle cx="1132.43" cy="978.574" r="3" transform="rotate(-83.9913 1132.43 978.574)" fill="black"/>
<circle cx="1111.08" cy="990.403" r="3" transform="rotate(-83.9913 1111.08 990.403)" fill="black"/>
<circle cx="1105.41" cy="1056.05" r="3" transform="rotate(-55.884 1105.41 1056.05)" fill="black"/>
<circle cx="1130.67" cy="1024.58" r="3" transform="rotate(-55.884 1130.67 1024.58)" fill="black"/>
<circle cx="1130.35" cy="1008.46" r="3" transform="rotate(-55.884 1130.35 1008.46)" fill="black"/>
<circle cx="1110.89" cy="1028.35" r="3" transform="rotate(-55.884 1110.89 1028.35)" fill="black"/>
<circle cx="1118.47" cy="1016.26" r="3" transform="rotate(-55.884 1118.47 1016.26)" fill="black"/>
<circle cx="1085.17" cy="1055.62" r="3" transform="rotate(-55.884 1085.17 1055.62)" fill="black"/>
<circle cx="1108.86" cy="1040.26" r="3" transform="rotate(-55.884 1108.86 1040.26)" fill="black"/>
<circle cx="1121.6" cy="1042.86" r="3" transform="rotate(-55.884 1121.6 1042.86)" fill="black"/>
<circle cx="1097.18" cy="1043.23" r="3" transform="rotate(-55.884 1097.18 1043.23)" fill="black"/>
<circle cx="1092.9" cy="914.686" r="3" transform="rotate(-117.772 1092.9 914.686)" fill="black"/>
<circle cx="1073.24" cy="873.052" r="3" transform="rotate(-117.772 1073.24 873.052)" fill="black"/>
<circle cx="1076.59" cy="883.717" r="3" transform="rotate(-117.772 1076.59 883.717)" fill="black"/>
<circle cx="1071.05" cy="896.805" r="3" transform="rotate(-117.772 1071.05 896.805)" fill="black"/>
<circle cx="1100.72" cy="903.786" r="3" transform="rotate(-117.772 1100.72 903.786)" fill="black"/>
<circle cx="1082.98" cy="932.34" r="3" transform="rotate(-117.772 1082.98 932.34)" fill="black"/>
<circle cx="1080.6" cy="904.209" r="3" transform="rotate(-117.772 1080.6 904.209)" fill="black"/>
<circle cx="1088.89" cy="894.194" r="3" transform="rotate(-117.772 1088.89 894.194)" fill="black"/>
<circle cx="1077.72" cy="915.901" r="3" transform="rotate(-117.772 1077.72 915.901)" fill="black"/>
<circle cx="1109.51" cy="973.613" r="3" transform="rotate(-89.6648 1109.51 973.613)" fill="black"/>
<circle cx="1113" cy="933.416" r="3" transform="rotate(-89.6648 1113 933.416)" fill="black"/>
<circle cx="1103.78" cy="920.191" r="3" transform="rotate(-89.6648 1103.78 920.191)" fill="black"/>
<circle cx="1098.66" cy="947.548" r="3" transform="rotate(-89.6648 1098.66 947.548)" fill="black"/>
<circle cx="1098.24" cy="933.279" r="3" transform="rotate(-89.6648 1098.24 933.279)" fill="black"/>
<circle cx="1092.44" cy="984.514" r="3" transform="rotate(-89.6648 1092.44 984.514)" fill="black"/>
<circle cx="1103.6" cy="958.577" r="3" transform="rotate(-89.6648 1103.6 958.577)" fill="black"/>
<circle cx="1115.63" cy="953.648" r="3" transform="rotate(-89.6648 1115.63 953.648)" fill="black"/>
<circle cx="1095.54" cy="967.531" r="3" transform="rotate(-89.6648 1095.54 967.531)" fill="black"/>
<circle cx="1004.25" cy="867.541" r="3" transform="rotate(174.221 1004.25 867.541)" fill="black"/>
<circle cx="958.286" cy="870.184" r="3" transform="rotate(174.221 958.286 870.184)" fill="black"/>
<circle cx="969.432" cy="871.066" r="3" transform="rotate(174.221 969.432 871.066)" fill="black"/>
<circle cx="979.493" cy="881.102" r="3" transform="rotate(174.221 979.493 881.102)" fill="black"/>
<circle cx="997.077" cy="856.206" r="3" transform="rotate(174.221 997.077 856.206)" fill="black"/>
<circle cx="1016.91" cy="883.348" r="3" transform="rotate(174.221 1016.91 883.348)" fill="black"/>
<circle cx="989.935" cy="875.021" r="3" transform="rotate(174.221 989.935 875.021)" fill="black"/>
<circle cx="983.752" cy="863.585" r="3" transform="rotate(174.221 983.752 863.585)" fill="black"/>
<circle cx="999.695" cy="882.074" r="3" transform="rotate(174.221 999.695 882.074)" fill="black"/>
<circle cx="1065.11" cy="874.21" r="3" transform="rotate(-157.671 1065.11 874.21)" fill="black"/>
<circle cx="1029.15" cy="855.915" r="3" transform="rotate(-157.671 1029.15 855.915)" fill="black"/>
<circle cx="1013.43" cy="859.517" r="3" transform="rotate(-157.671 1013.43 859.517)" fill="black"/>
<circle cx="1036.88" cy="874.506" r="3" transform="rotate(-157.671 1036.88 874.506)" fill="black"/>
<circle cx="1023.49" cy="869.554" r="3" transform="rotate(-157.671 1023.49 869.554)" fill="black"/>
<circle cx="1068.83" cy="894.115" r="3" transform="rotate(-157.671 1068.83 894.115)" fill="black"/>
<circle cx="1048.96" cy="874.062" r="3" transform="rotate(-157.671 1048.96 874.062)" fill="black"/>
<circle cx="1048.89" cy="861.061" r="3" transform="rotate(-157.671 1048.89 861.061)" fill="black"/>
<circle cx="1054.24" cy="884.881" r="3" transform="rotate(-157.671 1054.24 884.881)" fill="black"/>
<circle r="3.45623" transform="matrix(0.892516 0.451015 0.451015 -0.892516 911.96 872.956)" fill="black"/>
<circle r="3.45623" transform="matrix(0.892516 0.451015 0.451015 -0.892516 960.299 894.802)" fill="black"/>
<circle r="3.45623" transform="matrix(0.892516 0.451015 0.451015 -0.892516 947.949 891.144)" fill="black"/>
<circle r="3.45623" transform="matrix(0.892516 0.451015 0.451015 -0.892516 932.981 897.777)" fill="black"/>
<circle r="3.45623" transform="matrix(0.892516 0.451015 0.451015 -0.892516 924.365 863.735)" fill="black"/>
<circle r="3.45623" transform="matrix(0.892516 0.451015 0.451015 -0.892516 891.816 884.72)" fill="black"/>
<circle r="3.45623" transform="matrix(0.892516 0.451015 0.451015 -0.892516 924.267 886.92)" fill="black"/>
<circle r="3.45623" transform="matrix(0.892516 0.451015 0.451015 -0.892516 935.643 877.178)" fill="black"/>
<circle r="3.45623" transform="matrix(0.892516 0.451015 0.451015 -0.892516 910.855 890.469)" fill="black"/>
<circle r="3.45623" transform="matrix(0.999743 -0.0226618 -0.0226618 -0.999743 843.759 854.966)" fill="black"/>
<circle r="3.45623" transform="matrix(0.999743 -0.0226618 -0.0226618 -0.999743 889.996 850.162)" fill="black"/>
<circle r="3.45623" transform="matrix(0.999743 -0.0226618 -0.0226618 -0.999743 905.408 860.533)" fill="black"/>
<circle r="3.45623" transform="matrix(0.999743 -0.0226618 -0.0226618 -0.999743 873.995 866.956)" fill="black"/>
<circle r="3.45623" transform="matrix(0.999743 -0.0226618 -0.0226618 -0.999743 890.44 867.167)" fill="black"/>
<circle r="3.45623" transform="matrix(0.999743 -0.0226618 -0.0226618 -0.999743 831.533 874.835)" fill="black"/>
<circle r="3.45623" transform="matrix(0.999743 -0.0226618 -0.0226618 -0.999743 861.194 861.486)" fill="black"/>
<circle r="3.45623" transform="matrix(0.999743 -0.0226618 -0.0226618 -0.999743 866.639 847.534)" fill="black"/>
<circle r="3.45623" transform="matrix(0.999743 -0.0226618 -0.0226618 -0.999743 851.036 870.935)" fill="black"/>
<circle r="3.45623" transform="matrix(0.97646 0.215698 0.215698 -0.97646 964.414 875.125)" fill="black"/>
<circle r="3.45623" transform="matrix(0.97646 0.215698 0.215698 -0.97646 1016.66 884.306)" fill="black"/>
<circle r="3.45623" transform="matrix(0.97646 0.215698 0.215698 -0.97646 1003.79 883.824)" fill="black"/>
<circle r="3.45623" transform="matrix(0.97646 0.215698 0.215698 -0.97646 990.931 893.96)" fill="black"/>
<circle r="3.45623" transform="matrix(0.97646 0.215698 0.215698 -0.97646 974.145 863.116)" fill="black"/>
<circle r="3.45623" transform="matrix(0.97646 0.215698 0.215698 -0.97646 947.814 891.515)" fill="black"/>
<circle r="3.45623" transform="matrix(0.97646 0.215698 0.215698 -0.97646 979.798 885.602)" fill="black"/>
<circle r="3.45623" transform="matrix(0.97646 0.215698 0.215698 -0.97646 988.404 873.344)" fill="black"/>
<circle r="3.45623" transform="matrix(0.97646 0.215698 0.215698 -0.97646 967.684 892.365)" fill="black"/>
<circle r="3.45623" transform="matrix(0.962924 -0.269774 -0.269774 -0.962924 893.882 874.602)" fill="black"/>
<circle r="3.45623" transform="matrix(0.962924 -0.269774 -0.269774 -0.962924 937.485 858.486)" fill="black"/>
<circle r="3.45623" transform="matrix(0.962924 -0.269774 -0.269774 -0.962924 954.987 864.713)" fill="black"/>
<circle r="3.45623" transform="matrix(0.962924 -0.269774 -0.269774 -0.962924 926.146 878.722)" fill="black"/>
<circle r="3.45623" transform="matrix(0.962924 -0.269774 -0.269774 -0.962924 942.13 874.85)" fill="black"/>
<circle r="3.45623" transform="matrix(0.962924 -0.269774 -0.269774 -0.962924 886.962 896.881)" fill="black"/>
<circle r="3.45623" transform="matrix(0.962924 -0.269774 -0.269774 -0.962924 912.389 876.596)" fill="black"/>
<circle r="3.45623" transform="matrix(0.962924 -0.269774 -0.269774 -0.962924 914.206 861.73)" fill="black"/>
<circle r="3.45623" transform="matrix(0.962924 -0.269774 -0.269774 -0.962924 904.89 888.269)" fill="black"/>
<path d="M685.397 611.653C742.572 589.307 787.505 594.641 834.066 613.899" stroke="black" stroke-width="7.78769" stroke-miterlimit="10"/>
<path d="M1039.54 605.425C1046.54 603.265 1053.6 601.104 1060.69 599.164C1105.16 587.033 1148.58 577.616 1198.86 603.186" stroke="black" stroke-width="7.78769" stroke-miterlimit="10"/>
<path d="M1082.04 688.61L1081.29 688.841C1066.22 693.217 1052.09 677.188 1047.11 666.539C1041.53 654.307 1039.09 641.119 1039.98 627.961C1042.31 595.527 1086.76 584.844 1103.93 615.301C1110.81 627.583 1112.59 641.635 1108.95 654.93C1105.74 666.47 1095.62 684.14 1082.04 688.61Z" stroke="black" stroke-width="7.78769" stroke-miterlimit="10"/>
<path d="M806.417 696.363L805.667 696.601C790.59 701.128 776.47 684.61 771.504 673.632C765.931 661.022 763.505 647.423 764.408 633.852C766.766 600.409 811.216 589.342 828.371 620.737C835.238 633.412 836.997 647.917 833.331 661.64C830.16 673.507 820.025 691.74 806.417 696.363Z" stroke="black" stroke-width="7.78769" stroke-miterlimit="10"/>
<path d="M1041.27 631.515C1040.25 646.524 1042.8 661.575 1048.76 675.671C1050.69 680.16 1053.33 684.992 1058.23 687.069" stroke="black" stroke-width="7.78769" stroke-miterlimit="10"/>
<path d="M767.113 673.151C765.789 675.515 766.456 678.504 768.061 680.736C769.667 682.968 772.07 684.582 774.384 686.159C782.657 691.725 791.481 697.524 801.662 698.424" stroke="black" stroke-width="7.78769" stroke-miterlimit="10"/>
<path d="M685.382 612.153C706.11 604.62 740.706 599.884 767.376 602.902C778.281 603.948 789.083 605.877 799.676 608.67C809.216 611.2 817.097 614.259 837.677 619.058" stroke="black" stroke-width="7.78769" stroke-miterlimit="10"/>
<path d="M1043.12 610.685C1050.02 608.485 1057.64 605.764 1066.38 603.754C1098.29 598.442 1113.86 594.891 1134.38 593.14C1156.53 591.271 1178.61 594.427 1199.86 603.118" stroke="black" stroke-width="7.78769" stroke-miterlimit="10"/>
<path d="M1085.36 693.05L1084.68 693.325C1069.55 698.912 1054.76 676.703 1051.16 668.55C1046.26 658.117 1042.27 646.027 1043.6 632.661C1047.5 616.963 1057.17 605.434 1070.42 602.891C1083.25 600.176 1099.65 606.447 1107.26 622.368C1113.53 632.769 1117.05 645.71 1111.86 660.193C1106.59 672.857 1096.36 687.012 1085.36 693.05Z" fill="black" stroke="black" stroke-width="7.78769" stroke-miterlimit="10"/>
<path d="M809.748 700.938L809.068 701.223C793.933 707.008 779.169 684.116 775.569 675.703C770.683 664.947 766.693 652.482 768.049 638.696C772.009 622.503 781.64 610.604 794.892 607.969C807.725 605.157 824.119 611.619 831.719 628.022C837.974 638.744 841.487 652.086 836.283 667.029C830.985 680.093 820.762 694.701 809.748 700.938Z" fill="black" stroke="black" stroke-width="7.78769" stroke-miterlimit="10"/>
<path d="M1044.87 636.233C1043.6 652.755 1047.74 662.899 1051.92 678.397C1053.45 683.62 1056.73 690.005 1061.82 691.832" stroke="black" stroke-width="7.78769" stroke-miterlimit="10"/>
<path d="M770.705 677.986C770.068 679.203 769.871 680.578 770.142 681.91C770.414 683.242 771.139 684.461 772.212 685.387C774.347 687.408 777.02 688.708 779.014 690.136C784.185 695.058 793.723 702.652 805.254 703.231" stroke="black" stroke-width="7.78769" stroke-miterlimit="10"/>
<path d="M706.894 515.06C746.512 513.379 798.14 504.684 838.454 515.836C849.761 518.964 828.49 498.127 825.74 496.671C802.563 484.406 767.279 488.153 745.547 497.353C739.426 499.945 720.791 519.548 720.734 514.415C720.537 496.695 757.197 499.301 773.844 499.584C778.428 499.661 827.627 502.23 807.134 501.164C779.703 499.737 753.56 503.656 729.174 512.427C716.371 517.033 707.011 525.075 693.19 527.998" stroke="black" stroke-width="7" stroke-linecap="round" stroke-linejoin="round"/>
<path d="M1165.89 512.332C1133.81 502.195 1100.14 493.221 1064.39 499.185C1062.18 499.554 1045.59 504.6 1044.09 502.833C1036.98 494.411 1127.74 487.345 1136.58 487.415C1141.96 487.458 1152.51 485.808 1153.69 491.665C1155.55 500.885 1156.13 498.495 1153.52 491.511C1144.87 468.421 1093.94 475.545 1072.42 478.526C1063.79 479.721 1055.56 499.576 1056.28 489.521C1057.62 470.774 1126.53 476.849 1139.12 483.321C1146.2 486.964 1195.57 513.906 1167.22 504.114C1157.36 500.71 1137.71 491.883 1159.89 501.923C1175.64 509.053 1194.55 522.001 1166.28 506.849" stroke="black" stroke-width="7" stroke-linecap="round" stroke-linejoin="round"/>
<path d="M980.027 800.5C946.317 806.151 912.02 811.979 887.843 783.262C883.95 778.638 869.928 775.165 883.675 780.757C897.853 786.523 913.018 788.64 926.873 794.274C952.323 804.624 975.057 791.021 1000.87 788.972C1008.22 788.389 1019.79 786.816 1003.57 791.283C982.658 797.041 962.03 798.127 941.056 795.362C930.317 793.946 920.802 789.634 910.401 787.8C894.863 785.06 901.895 785.856 914.103 790.048C930.612 795.717 961.244 809.607 978.089 797.507C981.726 794.895 992.814 790.877 997.142 789.459C1012.62 784.388 965.35 795.446 950.196 801.847C929.191 810.72 969.975 793.214 976.419 791.224C996.449 785.039 959.889 804.934 974.588 796.263" stroke="black" stroke-width="7" stroke-linecap="round" stroke-linejoin="round"/>
<path d="M795.351 919.257C806.481 925.265 819.177 930 832.77 930.208C849.761 930.467 888.07 904.456 910.804 913.885C933.538 923.314 944.331 922.83 963.085 914.683C981.839 906.537 1034.17 946.907 1049.54 946.168C1061.84 945.578 1073.09 944.852 1081.5 938" stroke="black" stroke-width="7"/>
<path d="M847.577 941.319C858.386 942.95 869.34 943.409 880.239 944.042C886.803 944.424 894.072 943.509 900.447 945.568C907.109 947.719 913.269 951.648 920.052 953.756C929.675 956.745 940.486 955.578 950.473 955.731C960.75 955.888 972.581 952.263 982.56 955.13C987.268 956.482 990.501 958.537 995.562 958.685C1001.95 958.872 1008.28 958.88 1014.58 958.976C1021.19 959.077 1009.44 956.46 1008.03 956.232C992.482 953.719 977.078 953.116 961.362 952.876C950.394 952.708 939.571 951.033 928.606 950.865C927.061 950.841 934.729 951.63 933.183 951.606C925.641 951.491 917.898 950.189 910.446 949.077C906.619 948.506 902.897 948.207 899.031 948.148C898.531 948.14 895.424 947.979 897.821 948.171C910.178 949.163 921.833 951.517 934.35 951.708C954 952.008 973.441 950.795 993.092 951.095" stroke="black" stroke-width="8" stroke-linecap="round" stroke-linejoin="round"/>
<path d="M1020.36 1003.15C1013.47 1007.95 1005.92 1010.07 997.841 1012.03C991.031 1013.68 984.342 1015.42 977.35 1016.19C966.842 1017.33 956.225 1017.67 945.661 1017.75C933.961 1017.83 922.472 1017.62 911.091 1014.6C891.742 1009.48 873.985 999.595 857.713 988.108C854.889 986.114 852.403 983.839 850.441 980.982C849.158 979.113 849.767 983.93 849.841 984.468C851.506 996.663 859.846 1002.9 870.143 1008.27C888.794 1018 909.427 1021.12 930.289 1021.84C940.519 1022.19 950.693 1021.59 960.915 1021.33C967.174 1021.17 973.449 1021.38 979.685 1020.72C981.187 1020.56 989.453 1018.45 990.103 1019.8" stroke="black" stroke-width="7" stroke-linecap="round" stroke-linejoin="round"/>
<defs>
<linearGradient id="paint0_linear_325_4" x1="942.799" y1="90" x2="942.799" y2="774.5" gradientUnits="userSpaceOnUse">
<stop stop-color="#261C00"/>
<stop offset="0.671875" stop-color="#8C5A2B"/>
</linearGradient>
</defs>
</svg>
